<?xml version="1.0" standalone="no"?>
<svg xmlns:xlink="http://www.w3.org/1999/xlink" id="wave" style="transform:rotate(180deg); transition: 0.3s" viewBox="0 0 1440 490" version="1.1" xmlns="http://www.w3.org/2000/svg"><defs><linearGradient id="sw-gradient-0" x1="0" x2="0" y1="1" y2="0"><stop stop-color="rgba(3.781, 0, 75.454, 1)" offset="0%"/><stop stop-color="rgba(15.001, 23.629, 182.463, 1)" offset="100%"/></linearGradient></defs><path style="transform:translate(0, 0px); opacity:1" fill="url(#sw-gradient-0)" d="M0,196L40,220.5C80,245,160,294,240,277.7C320,261,400,180,480,130.7C560,82,640,65,720,122.5C800,180,880,310,960,310.3C1040,310,1120,180,1200,122.5C1280,65,1360,82,1440,114.3C1520,147,1600,196,1680,236.8C1760,278,1840,310,1920,326.7C2000,343,2080,343,2160,285.8C2240,229,2320,114,2400,65.3C2480,16,2560,33,2640,106.2C2720,180,2800,310,2880,334.8C2960,359,3040,278,3120,253.2C3200,229,3280,261,3360,253.2C3440,245,3520,196,3600,163.3C3680,131,3760,114,3840,130.7C3920,147,4000,196,4080,196C4160,196,4240,147,4320,155.2C4400,163,4480,229,4560,285.8C4640,343,4720,392,4800,367.5C4880,343,4960,245,5040,220.5C5120,196,5200,245,5280,294C5360,343,5440,392,5520,359.3C5600,327,5680,212,5720,155.2L5760,98L5760,490L5720,490C5680,490,5600,490,5520,490C5440,490,5360,490,5280,490C5200,490,5120,490,5040,490C4960,490,4880,490,4800,490C4720,490,4640,490,4560,490C4480,490,4400,490,4320,490C4240,490,4160,490,4080,490C4000,490,3920,490,3840,490C3760,490,3680,490,3600,490C3520,490,3440,490,3360,490C3280,490,3200,490,3120,490C3040,490,2960,490,2880,490C2800,490,2720,490,2640,490C2560,490,2480,490,2400,490C2320,490,2240,490,2160,490C2080,490,2000,490,1920,490C1840,490,1760,490,1680,490C1600,490,1520,490,1440,490C1360,490,1280,490,1200,490C1120,490,1040,490,960,490C880,490,800,490,720,490C640,490,560,490,480,490C400,490,320,490,240,490C160,490,80,490,40,490L0,490Z"/></svg>