<svg id="visual" viewBox="0 0 900 600" width="900" height="600" xmlns="http://www.w3.org/2000/svg" xmlns:xlink="http://www.w3.org/1999/xlink" version="1.1"><rect x="0" y="0" width="900" height="600" fill="#FFFFFF"></rect><path d="M0 123L21.5 115.8C43 108.7 86 94.3 128.8 106C171.7 117.7 214.3 155.3 257.2 178.3C300 201.3 343 209.7 385.8 210C428.7 210.3 471.3 202.7 514.2 184.2C557 165.7 600 136.3 642.8 138.8C685.7 141.3 728.3 175.7 771.2 182.8C814 190 857 170 878.5 160L900 150L900 0L878.5 0C857 0 814 0 771.2 0C728.3 0 685.7 0 642.8 0C600 0 557 0 514.2 0C471.3 0 428.7 0 385.8 0C343 0 300 0 257.2 0C214.3 0 171.7 0 128.8 0C86 0 43 0 21.5 0L0 0Z" fill="#0066FF" stroke-linecap="round" stroke-linejoin="miter"></path></svg>